23000 0 2 2           
30 Autodesk Translation Framework 20 ASM 230.5.1.65535 NT 24 Sat Dec 21 13:32:46 2024 
25.39999999999999858 9.999999999999999547e-07 1.000000000000000036e-10 
asmheader $-1 -1 @13 230.5.1.65535 #
body $2 -1 $-1 $3 $-1 $4 #
rgb_color-st-attrib $-1 -1 $5 $-1 $1 0.9607843137254902244 0.9607843137254902244 0.9647058823529411908 1 #
lump $-1 -1 $-1 $-1 $6 $1 #
transform $-1 -1 1 0 0 0 1 0 0 0 1 0 0 0 1 no_rotate no_reflect no_shear #
ATTRIB_CUSTOM-attrib $-1 -1 $-1 $2 $1 @20 Timestamp_attrib_def 1 1710956293758225 #
shell $-1 -1 $-1 $-1 $-1 $7 $-1 $3 #
face $8 -1 $-1 $9 $10 $6 $-1 $11 reversed single #
DXID-attrib $-1 -1 $-1 $-1 $7 @10 ASM ENTITY @1 0 #
face $12 -1 $-1 $13 $14 $6 $-1 $15 reversed single #
loop $-1 -1 $-1 $-1 $16 $7 #
cone-surface $-1 -1 $-1 1.450891612613467441 0.9529999999999997362 26.48710838738652384 0 -1 0 0.06450000000000000178 0 0 1 I I 0 1 0.06450000000000000178 forward I I I I #
DXID-attrib $-1 -1 $-1 $-1 $9 @10 ASM ENTITY @1 1 #
face $17 -1 $-1 $18 $19 $6 $-1 $20 reversed single #
loop $-1 -1 $-1 $-1 $21 $9 #
cone-surface $-1 -1 $-1 0.5461083873865321126 0.9529999999999997362 27.39189161261346328 0 -1 0 0.06450000000000000178 0 0 1 I I 0 1 0.06450000000000000178 forward I I I I #
coedge $-1 -1 $-1 $22 $23 $24 $25 reversed $10 0 $-1 #
DXID-attrib $-1 -1 $-1 $-1 $13 @10 ASM ENTITY @1 2 #
face $26 -1 $-1 $27 $28 $6 $-1 $29 reversed single #
loop $-1 -1 $-1 $-1 $30 $13 #
cone-surface $-1 -1 $-1 1.450891612613467441 0.9529999999999997362 0.5456083873865322786 0 -1 0 0.06450000000000000178 0 0 1 I I 0 1 0.06450000000000000178 forward I I I I #
coedge $-1 -1 $-1 $31 $32 $33 $34 reversed $14 0 $-1 #
coedge $-1 -1 $-1 $35 $16 $36 $37 reversed $10 0 $-1 #
coedge $-1 -1 $-1 $16 $35 $38 $39 reversed $10 0 $-1 #
coedge $-1 -1 $-1 $40 $41 $16 $25 forward $42 0 $-1 #
edge $-1 -1 $-1 $43 -0.1219200000000002504 $44 0.1219200000000002504 $24 $45 forward @7 unknown #
DXID-attrib $-1 -1 $-1 $-1 $18 @10 ASM ENTITY @1 3 #
face $46 -1 $-1 $47 $48 $6 $-1 $49 reversed single #
loop $-1 -1 $-1 $-1 $50 $18 #
cone-surface $-1 -1 $-1 0.5461083873865322236 0.9529999999999997362 1.45039161261346794 0 -1 0 0.06450000000000000178 0 0 1 I I 0 1 0.06450000000000000178 forward I I I I #
coedge $-1 -1 $-1 $51 $52 $53 $54 reversed $19 0 $-1 #
coedge $-1 -1 $-1 $55 $21 $56 $57 reversed $14 0 $-1 #
coedge $-1 -1 $-1 $21 $55 $58 $59 reversed $14 0 $-1 #
coedge $-1 -1 $-1 $60 $61 $21 $34 forward $62 0 $-1 #
edge $-1 -1 $-1 $63 -0.1219200000000002504 $64 0.1219200000000002504 $33 $65 forward @7 unknown #
coedge $-1 -1 $-1 $23 $22 $66 $67 reversed $10 0 $-1 #
coedge $-1 -1 $-1 $68 $69 $22 $37 forward $70 0 $-1 #
edge $-1 -1 $-1 $71 -2.356194490192354607 $43 0.7853981633974446153 $36 $72 forward @7 unknown #
coedge $-1 -1 $-1 $73 $74 $23 $39 forward $75 0 $-1 #
edge $-1 -1 $-1 $44 -0.7853981633974446153 $76 2.356194490192354607 $38 $77 forward @7 unknown #
coedge $-1 -1 $-1 $78 $24 $74 $79 reversed $42 0 $-1 #
coedge $80 -1 $-1 $24 $78 $68 $81 reversed $42 0 $-1 #
loop $-1 -1 $-1 $-1 $24 $82 #
vertex $-1 -1 $-1 $81 0 $83 #
vertex $-1 -1 $-1 $25 1 $84 #
straight-curve $-1 -1 $-1 1.496499999999999719 0.9529999999999997362 26.53271677477305701 0 -0.3937007874015747699 0 I I #
DXID-attrib $-1 -1 $-1 $-1 $27 @10 ASM ENTITY @1 4 #
face $85 -1 $-1 $86 $87 $6 $-1 $88 reversed single #
loop $-1 -1 $-1 $-1 $89 $27 #
cone-surface $-1 -1 $-1 1.450891612613467441 0.9529999999999997362 1.45039161261346794 0 -1 0 0.06450000000000000178 0 0 1 I I 0 1 0.06450000000000000178 forward I I I I #
coedge $-1 -1 $-1 $90 $91 $92 $93 reversed $28 0 $-1 #
coedge $-1 -1 $-1 $94 $30 $95 $96 reversed $19 0 $-1 #
coedge $-1 -1 $-1 $30 $94 $97 $98 reversed $19 0 $-1 #
coedge $-1 -1 $-1 $99 $100 $30 $54 forward $101 0 $-1 #
edge $-1 -1 $-1 $102 -0.1219200000000002504 $103 0.1219200000000002504 $53 $104 forward @7 unknown #
coedge $-1 -1 $-1 $32 $31 $105 $106 reversed $14 0 $-1 #
coedge $-1 -1 $-1 $107 $108 $31 $57 forward $75 0 $-1 #
edge $-1 -1 $-1 $109 2.356194490192348834 $63 5.497787143782145947 $56 $110 forward @7 unknown #
coedge $-1 -1 $-1 $111 $112 $32 $59 forward $70 0 $-1 #
edge $-1 -1 $-1 $64 0.7853981633974398413 $113 3.926990816987237398 $58 $114 forward @7 unknown #
coedge $115 -1 $-1 $116 $33 $112 $117 reversed $62 0 $-1 #
coedge $-1 -1 $-1 $33 $116 $107 $118 reversed $62 0 $-1 #
loop $-1 -1 $-1 $-1 $33 $119 #
vertex $-1 -1 $-1 $118 0 $120 #
vertex $-1 -1 $-1 $59 0 $121 #
straight-curve $-1 -1 $-1 0.5917167747730647243 0.9529999999999997362 27.43749999999999645 0 0.3937007874015747699 0 I I #
coedge $-1 -1 $-1 $122 $123 $35 $67 forward $124 0 $-1 #
edge $-1 -1 $-1 $76 -0.1219200000000002504 $71 0.1219200000000002504 $66 $125 forward @7 unknown #
coedge $-1 -1 $-1 $126 $36 $41 $81 forward $70 0 $-1 #
coedge $-1 -1 $-1 $36 $127 $122 $128 forward $70 0 $-1 #
loop $-1 -1 $-1 $129 $36 $130 #
vertex $-1 -1 $-1 $67 1 $131 #
ellipse-curve $-1 -1 $-1 1.450891612613467441 1.000999999999999668 26.48710838738652384 0 -1 0 0.06450000000000000178 0 0 1 I I #
coedge $-1 -1 $-1 $132 $38 $123 $133 forward $75 0 $-1 #
coedge $-1 -1 $-1 $38 $134 $40 $79 forward $75 0 $-1 #
loop $-1 -1 $-1 $135 $38 $136 #
vertex $-1 -1 $-1 $133 0 $137 #
ellipse-curve $-1 -1 $-1 1.450891612613467441 0.9049999999999996936 26.48710838738652384 0 1 0 0.06450000000000000178 0 0 1 I I #
coedge $-1 -1 $-1 $41 $40 $138 $139 forward $42 0 $-1 #
edge $-1 -1 $-1 $140 -35.8788543920764198 $44 -33.81239560792357679 $74 $141 forward @7 unknown #
ATTRIB_CUSTOM-attrib $-1 -1 $-1 $-1 $41 @17 sketch_attrib_def 1 1 3 @13 146 0 1 0 1 1 #
edge $-1 -1 $-1 $43 33.81239560792357679 $142 35.8788543920764198 $68 $143 forward @7 unknown #
face $144 -1 $-1 $136 $42 $6 $-1 $145 reversed single #
point $-1 -1 $-1 1.496499999999999719 1.00099999999999989 26.53271677477305701 #
point $-1 -1 $-1 1.496499999999999719 0.9049999999999996936 26.53271677477305701 #
DXID-attrib $-1 -1 $-1 $-1 $47 @10 ASM ENTITY @1 5 #
face $146 -1 $-1 $147 $148 $6 $-1 $149 reversed single #
loop $-1 -1 $-1 $-1 $150 $47 #
cone-surface $-1 -1 $-1 0.5461083873865322236 0.9529999999999997362 0.5456083873865322786 0 -1 0 0.06450000000000000178 0 0 1 I I 0 1 0.06450000000000000178 forward I I I I #
coedge $-1 -1 $-1 $151 $152 $153 $154 reversed $48 0 $-1 #
coedge $-1 -1 $-1 $155 $50 $156 $157 reversed $28 0 $-1 #
coedge $-1 -1 $-1 $50 $155 $158 $159 reversed $28 0 $-1 #
coedge $-1 -1 $-1 $160 $161 $50 $93 forward $162 0 $-1 #
edge $-1 -1 $-1 $163 -0.1219200000000002504 $164 0.1219200000000002504 $92 $165 forward @7 unknown #
coedge $-1 -1 $-1 $52 $51 $166 $167 reversed $19 0 $-1 #
coedge $-1 -1 $-1 $168 $169 $51 $96 forward $129 0 $-1 #
edge $-1 -1 $-1 $170 -2.356194490192343949 $102 0.7853981633974492782 $95 $171 forward @7 unknown #
coedge $-1 -1 $-1 $172 $173 $52 $98 forward $135 0 $-1 #
edge $-1 -1 $-1 $103 -0.7853981633974492782 $174 2.356194490192343949 $97 $175 forward @7 unknown #
coedge $-1 -1 $-1 $176 $53 $173 $177 reversed $101 0 $-1 #
coedge $178 -1 $-1 $53 $176 $168 $179 reversed $101 0 $-1 #
loop $-1 -1 $-1 $-1 $53 $180 #
vertex $-1 -1 $-1 $179 0 $181 #
vertex $-1 -1 $-1 $54 1 $182 #
straight-curve $-1 -1 $-1 1.496499999999999719 0.9529999999999997362 0.5912167747730646683 0 -0.3937007874015747699 0 I I #
coedge $-1 -1 $-1 $183 $184 $55 $106 forward $185 0 $-1 #
edge $-1 -1 $-1 $113 -0.1219200000000002504 $109 0.1219200000000002504 $105 $186 forward @7 unknown #
coedge $-1 -1 $-1 $134 $56 $61 $118 forward $75 0 $-1 #
coedge $-1 -1 $-1 $56 $132 $183 $187 forward $75 0 $-1 #
vertex $-1 -1 $-1 $106 1 $188 #
ellipse-curve $-1 -1 $-1 0.5461083873865321126 0.9049999999999996936 27.39189161261346328 0 1 0 0.06450000000000000178 0 0 1 I I #
coedge $-1 -1 $-1 $127 $58 $184 $189 forward $70 0 $-1 #
coedge $-1 -1 $-1 $58 $126 $60 $117 forward $70 0 $-1 #
vertex $-1 -1 $-1 $189 0 $190 #
ellipse-curve $-1 -1 $-1 0.5461083873865321126 1.000999999999999668 27.39189161261346328 0 -1 0 0.06450000000000000178 0 0 1 I I #
ATTRIB_CUSTOM-attrib $-1 -1 $-1 $-1 $60 @17 sketch_attrib_def 1 1 3 @13 151 0 1 0 1 1 #
coedge $-1 -1 $-1 $61 $60 $191 $192 forward $62 0 $-1 #
edge $-1 -1 $-1 $193 0.8673256079235858174 $64 2.933784392076415504 $112 $194 forward @7 unknown #
edge $-1 -1 $-1 $63 -0.5195143920764149215 $195 1.546944392076414765 $107 $196 forward @7 unknown #
face $197 -1 $-1 $82 $62 $6 $-1 $198 reversed single #
point $-1 -1 $-1 0.5917167747730647243 0.9049999999999996936 27.43749999999999645 #
point $-1 -1 $-1 0.5917167747730647243 1.00099999999999989 27.43749999999999645 #
coedge $199 -1 $-1 $200 $66 $69 $128 reversed $124 0 $-1 #
coedge $-1 -1 $-1 $66 $200 $73 $133 reversed $124 0 $-1 #
loop $-1 -1 $-1 $-1 $66 $201 #
straight-curve $-1 -1 $-1 1.405283225226934718 0.9529999999999997362 26.44149999999999423 0 0.3937007874015747699 0 I I #
coedge $-1 -1 $-1 $112 $68 $202 $203 forward $70 0 $-1 #
coedge $-1 -1 $-1 $69 $111 $204 $205 forward $70 0 $-1 #
edge $-1 -1 $-1 $206 -1.668864392076414793 $71 0.3975943920764146711 $69 $207 forward @7 unknown #
loop $-1 -1 $-1 $208 $95 $130 #
face $209 -1 $-1 $210 $70 $6 $-1 $211 forward single #
point $-1 -1 $-1 1.405283225226934718 1.00099999999999989 26.44149999999999423 #
coedge $-1 -1 $-1 $108 $73 $212 $213 forward $75 0 $-1 #
edge $-1 -1 $-1 $76 -2.811864392076414809 $214 -0.7454056079235852339 $73 $215 forward @7 unknown #
coedge $-1 -1 $-1 $74 $107 $216 $217 forward $75 0 $-1 #
loop $-1 -1 $-1 $218 $97 $136 #
face $219 -1 $-1 $220 $75 $6 $-1 $221 forward single #
point $-1 -1 $-1 1.405283225226934718 0.9049999999999996936 26.44149999999999423 #
coedge $-1 -1 $-1 $216 $202 $78 $139 reversed $148 0 $-1 #
edge $-1 -1 $-1 $140 -0.1219200000000002504 $142 0.1219200000000002504 $78 $222 forward @7 unknown #
vertex $-1 -1 $-1 $79 0 $223 #
straight-curve $-1 -1 $-1 1.496499999999999719 0.9049999999999996936 13.22074999999999712 0 0 -0.3937007874015747699 I I #
vertex $-1 -1 $-1 $139 1 $224 #
straight-curve $-1 -1 $-1 1.496499999999999941 1.000999999999999668 13.22074999999999712 0 0 0.3937007874015747699 I I #
DXID-attrib $-1 -1 $-1 $-1 $82 @10 ASM ENTITY @2 11 #
plane-surface $-1 -1 $-1 1.496499999999999719 1.000999999999999668 26.44149999999999423 1 0 0 0 0 0.3937007874015747699 forward_v I I I I #
DXID-attrib $-1 -1 $-1 $-1 $86 @10 ASM ENTITY @1 6 #
face $225 -1 $-1 $226 $227 $6 $-1 $228 reversed single #
loop $-1 -1 $-1 $-1 $191 $86 #
cone-surface $-1 -1 $-1 1.450891612613467441 0.9529999999999997362 27.39189161261346328 0 -1 0 0.06450000000000000178 0 0 1 I I 0 1 0.06450000000000000178 forward I I I I #
coedge $-1 -1 $-1 $229 $230 $231 $232 reversed $87 0 $-1 #
coedge $-1 -1 $-1 $233 $89 $234 $235 reversed $48 0 $-1 #
coedge $-1 -1 $-1 $89 $233 $236 $237 reversed $48 0 $-1 #
coedge $-1 -1 $-1 $161 $160 $89 $154 forward $162 0 $-1 #
edge $-1 -1 $-1 $238 -0.1219200000000002504 $239 0.1219200000000002504 $153 $240 forward @7 unknown #
coedge $-1 -1 $-1 $91 $90 $241 $242 reversed $28 0 $-1 #
coedge $-1 -1 $-1 $243 $244 $90 $157 forward $135 0 $-1 #
edge $-1 -1 $-1 $245 2.356194490192345725 $163 5.497787143782138841 $156 $246 forward @7 unknown #
coedge $-1 -1 $-1 $247 $248 $91 $159 forward $129 0 $-1 #
edge $-1 -1 $-1 $164 0.7853981633974473908 $249 3.926990816987240507 $158 $250 forward @7 unknown #
coedge $251 -1 $-1 $153 $92 $248 $252 reversed $162 0 $-1 #
coedge $-1 -1 $-1 $92 $153 $243 $253 reversed $162 0 $-1 #
loop $-1 -1 $-1 $-1 $92 $226 #
vertex $-1 -1 $-1 $253 0 $254 #
vertex $-1 -1 $-1 $159 0 $255 #
straight-curve $-1 -1 $-1 0.5917167747730645022 0.9529999999999997362 1.495999999999999996 0 0.3937007874015747699 0 I I #
coedge $-1 -1 $-1 $256 $257 $94 $167 forward $258 0 $-1 #
edge $-1 -1 $-1 $174 -0.1219200000000002504 $170 0.1219200000000002504 $166 $259 forward @7 unknown #
coedge $-1 -1 $-1 $234 $95 $100 $179 forward $129 0 $-1 #
coedge $-1 -1 $-1 $95 $260 $256 $261 forward $129 0 $-1 #
vertex $-1 -1 $-1 $167 1 $262 #
ellipse-curve $-1 -1 $-1 1.450891612613467441 1.000999999999999668 0.5456083873865322786 0 -1 0 0.06450000000000000178 0 0 1 I I #
coedge $-1 -1 $-1 $263 $97 $257 $264 forward $135 0 $-1 #
coedge $-1 -1 $-1 $97 $236 $99 $177 forward $135 0 $-1 #
vertex $-1 -1 $-1 $264 0 $265 #
ellipse-curve $-1 -1 $-1 1.450891612613467441 0.9049999999999996936 0.5456083873865322786 0 1 0 0.06450000000000000178 0 0 1 I I #
coedge $-1 -1 $-1 $100 $99 $233 $266 forward $101 0 $-1 #
edge $-1 -1 $-1 $267 -2.933149392076416007 $103 -0.8666906079235843219 $173 $268 forward @7 unknown #
ATTRIB_CUSTOM-attrib $-1 -1 $-1 $-1 $100 @17 sketch_attrib_def 1 1 3 @13 137 0 0 0 1 1 #
edge $-1 -1 $-1 $102 0.8666906079235843219 $269 2.933149392076416007 $168 $270 forward @7 unknown #
face $271 -1 $-1 $119 $101 $6 $-1 $272 reversed single #
point $-1 -1 $-1 1.496499999999999719 1.00099999999999989 0.5912167747730646683 #
point $-1 -1 $-1 1.496499999999999719 0.9049999999999996936 0.5912167747730646683 #
coedge $-1 -1 $-1 $273 $105 $108 $187 reversed $185 0 $-1 #
coedge $274 -1 $-1 $105 $273 $111 $189 reversed $185 0 $-1 #
loop $-1 -1 $-1 $-1 $105 $275 #
straight-curve $-1 -1 $-1 0.5004999999999998339 0.9529999999999997362 27.34628322522693367 0 -0.3937007874015747699 0 I I #
edge $-1 -1 $-1 $276 32.54747560792357319 $109 34.6139343920764162 $108 $277 forward @7 unknown #
point $-1 -1 $-1 0.5004999999999998339 0.9049999999999996936 27.34628322522693367 #
edge $-1 -1 $-1 $113 -34.6139343920764162 $278 -32.54747560792357319 $111 $279 forward @7 unknown #
point $-1 -1 $-1 0.5004999999999998339 1.00099999999999989 27.34628322522693367 #
coedge $-1 -1 $-1 $202 $216 $116 $192 reversed $148 0 $-1 #
edge $-1 -1 $-1 $193 -0.1219200000000002504 $195 0.1219200000000002504 $116 $280 forward @7 unknown #
vertex $-1 -1 $-1 $117 0 $281 #
straight-curve $-1 -1 $-1 1.746750000000000025 1.000999999999999668 27.43749999999999645 -0.3937007874015747699 0 0 I I #
vertex $-1 -1 $-1 $217 0 $282 #
straight-curve $-1 -1 $-1 0.7962499999999997913 0.9049999999999996936 27.43749999999999645 0.3937007874015747699 0 0 I I #
DXID-attrib $-1 -1 $-1 $-1 $119 @10 ASM ENTITY @2 10 #
plane-surface $-1 -1 $-1 1.496499999999999719 1.000999999999999668 27.43749999999999645 0 0 1 -0.3937007874015747699 0 0 forward_v I I I I #
ATTRIB_CUSTOM-attrib $-1 -1 $-1 $-1 $122 @17 sketch_attrib_def 1 1 3 @13 148 0 1 0 1 1 #
coedge $-1 -1 $-1 $123 $122 $283 $284 forward $124 0 $-1 #
face $285 -1 $-1 $275 $124 $6 $-1 $286 reversed single #
coedge $-1 -1 $-1 $138 $191 $126 $203 reversed $148 0 $-1 #
edge $-1 -1 $-1 $142 -0.7853981633974446153 $193 2.356194490192354607 $126 $287 forward @7 unknown #
coedge $-1 -1 $-1 $288 $283 $127 $205 reversed $227 0 $-1 #
edge $-1 -1 $-1 $278 2.356194490192349722 $206 5.497787143782145947 $127 $289 forward @7 unknown #
vertex $-1 -1 $-1 $128 0 $290 #
straight-curve $-1 -1 $-1 1.248749999999999805 1.000999999999999668 26.44149999999999423 0.3937007874015747699 0 0 I I #
loop $-1 -1 $-1 $-1 $291 $130 #
DXID-attrib $-1 -1 $-1 $-1 $130 @10 ASM ENTITY @2 20 #
face $292 -1 $-1 $293 $294 $6 $-1 $295 forward single #
plane-surface $-1 -1 $-1 1.996999999999999886 1.000999999999999668 0 0 1 0 -0.3937007874015747699 0 0 forward_v I I I I #
coedge $-1 -1 $-1 $283 $288 $132 $213 reversed $227 0 $-1 #
edge $-1 -1 $-1 $214 0.7853981633974398413 $276 3.92699081698723651 $132 $296 forward @7 unknown #
vertex $-1 -1 $-1 $213 0 $297 #
straight-curve $-1 -1 $-1 0.2982499999999998486 0.9049999999999996936 26.44149999999999423 -0.3937007874015747699 -0 -0 I I #
coedge $-1 -1 $-1 $191 $138 $134 $217 reversed $148 0 $-1 #
edge $-1 -1 $-1 $195 -2.356194490192354607 $140 0.7853981633974446153 $134 $298 forward @7 unknown #
loop $-1 -1 $-1 $-1 $299 $136 #
DXID-attrib $-1 -1 $-1 $-1 $136 @10 ASM ENTITY @2 12 #
face $300 -1 $-1 $301 $258 $6 $-1 $302 reversed single #
plane-surface $-1 -1 $-1 0.09599999999999983546 0.9049999999999996936 0 0 -1 0 0.3937007874015747699 0 0 forward_v I I I I #
straight-curve $-1 -1 $-1 1.496499999999999719 0.9529999999999997362 27.34628322522693367 0 0.3937007874015747699 0 I I #
point $-1 -1 $-1 1.496499999999999719 0.9049999999999996936 27.34628322522693367 #
point $-1 -1 $-1 1.496499999999999719 1.00099999999999989 27.34628322522693367 #
DXID-attrib $-1 -1 $-1 $-1 $147 @10 ASM ENTITY @1 7 #
face $303 -1 $-1 $180 $162 $6 $-1 $304 reversed single #
loop $-1 -1 $-1 $-1 $283 $147 #
cone-surface $-1 -1 $-1 0.5461083873865322236 0.9529999999999997362 26.48710838738652384 0 -1 0 0.06450000000000000178 0 0 1 I I 0 1 0.06450000000000000178 forward I I I I #
coedge $-1 -1 $-1 $305 $150 $260 $306 reversed $87 0 $-1 #
coedge $-1 -1 $-1 $150 $305 $263 $307 reversed $87 0 $-1 #
coedge $-1 -1 $-1 $257 $256 $150 $232 forward $258 0 $-1 #
edge $-1 -1 $-1 $308 -0.1219200000000002504 $309 0.1219200000000002504 $231 $310 forward @7 unknown #
coedge $-1 -1 $-1 $152 $151 $176 $266 reversed $48 0 $-1 #
coedge $-1 -1 $-1 $248 $168 $151 $235 forward $129 0 $-1 #
edge $-1 -1 $-1 $269 -0.7853981633974502774 $238 2.356194490192347057 $234 $311 forward @7 unknown #
coedge $-1 -1 $-1 $173 $243 $152 $237 forward $135 0 $-1 #
edge $-1 -1 $-1 $239 -2.356194490192347057 $267 0.7853981633974502774 $236 $312 forward @7 unknown #
vertex $-1 -1 $-1 $252 0 $313 #
vertex $-1 -1 $-1 $237 0 $314 #
straight-curve $-1 -1 $-1 1.40528322522693494 0.9529999999999997362 1.495999999999999996 0 -0.3937007874015747699 0 I I #
coedge $-1 -1 $-1 $315 $316 $155 $242 forward $317 0 $-1 #
edge $-1 -1 $-1 $249 -0.1219200000000002504 $245 0.1219200000000002504 $241 $318 forward @7 unknown #
coedge $-1 -1 $-1 $236 $156 $161 $253 forward $135 0 $-1 #
coedge $-1 -1 $-1 $156 $263 $315 $319 forward $135 0 $-1 #
vertex $-1 -1 $-1 $242 1 $320 #
ellipse-curve $-1 -1 $-1 0.5461083873865322236 0.9049999999999996936 1.45039161261346794 0 1 0 0.06450000000000000178 0 0 1 I I #
coedge $-1 -1 $-1 $260 $158 $316 $321 forward $129 0 $-1 #
coedge $-1 -1 $-1 $158 $234 $160 $252 forward $129 0 $-1 #
vertex $-1 -1 $-1 $321 0 $322 #
ellipse-curve $-1 -1 $-1 0.5461083873865322236 1.000999999999999668 1.45039161261346794 0 -1 0 0.06450000000000000178 0 0 1 I I #
ATTRIB_CUSTOM-attrib $-1 -1 $-1 $-1 $160 @17 sketch_attrib_def 1 1 3 @13 136 0 0 0 1 1 #
edge $-1 -1 $-1 $238 0.8673256079235849292 $164 2.933784392076415948 $248 $323 forward @7 unknown #
edge $-1 -1 $-1 $163 -0.5195143920764155876 $239 1.546944392076415653 $243 $324 forward @7 unknown #
point $-1 -1 $-1 0.5917167747730645022 0.9049999999999996936 1.495999999999999996 #
point $-1 -1 $-1 0.5917167747730645022 1.00099999999999989 1.495999999999999996 #
coedge $325 -1 $-1 $231 $166 $169 $261 reversed $258 0 $-1 #
coedge $-1 -1 $-1 $166 $231 $172 $264 reversed $258 0 $-1 #
loop $-1 -1 $-1 $-1 $166 $220 #
straight-curve $-1 -1 $-1 1.405283225226935162 0.9529999999999997362 0.4999999999999999445 0 0.3937007874015747699 0 I I #
coedge $-1 -1 $-1 $169 $247 $229 $306 forward $129 0 $-1 #
edge $-1 -1 $-1 $308 -1.668864392076415903 $170 0.3975943920764160033 $169 $326 forward @7 unknown #
point $-1 -1 $-1 1.405283225226935162 1.00099999999999989 0.4999999999999999445 #
coedge $-1 -1 $-1 $244 $172 $230 $307 forward $135 0 $-1 #
edge $-1 -1 $-1 $174 -2.811864392076416141 $309 -0.7454056079235842347 $172 $327 forward @7 unknown #
point $-1 -1 $-1 1.405283225226935162 0.9049999999999996936 0.4999999999999999445 #
edge $-1 -1 $-1 $267 -0.1219200000000002504 $269 0.1219200000000002504 $176 $328 forward @7 unknown #
vertex $-1 -1 $-1 $177 0 $329 #
straight-curve $-1 -1 $-1 1.496499999999999719 0.9049999999999996936 0.2499999999999999722 0 0 -0.3937007874015747699 I I #
vertex $-1 -1 $-1 $266 1 $330 #
straight-curve $-1 -1 $-1 1.496499999999999941 1.000999999999999668 0.2499999999999999722 0 0 0.3937007874015747699 I I #
DXID-attrib $-1 -1 $-1 $-1 $180 @10 ASM ENTITY @1 9 #
plane-surface $-1 -1 $-1 1.496499999999999719 1.000999999999999668 0.4999999999999999445 1 0 0 0 0 0.3937007874015747699 forward_v I I I I #
coedge $-1 -1 $-1 $184 $183 $288 $331 forward $185 0 $-1 #
ATTRIB_CUSTOM-attrib $-1 -1 $-1 $-1 $184 @17 sketch_attrib_def 1 1 3 @13 150 0 1 0 1 1 #
face $332 -1 $-1 $333 $185 $6 $-1 $334 reversed single #
vertex $-1 -1 $-1 $187 0 $335 #
straight-curve $-1 -1 $-1 0.5004999999999998339 0.9049999999999996936 13.71874999999999822 0 0 0.3937007874015747699 I I #
vertex $-1 -1 $-1 $331 1 $336 #
straight-curve $-1 -1 $-1 0.5004999999999997229 1.000999999999999668 13.71874999999999822 0 0 -0.3937007874015747699 I I #
straight-curve $-1 -1 $-1 1.405283225226934718 0.9529999999999997362 27.43749999999999645 0 -0.3937007874015747699 0 I I #
point $-1 -1 $-1 1.405283225226934718 1.00099999999999989 27.43749999999999645 #
point $-1 -1 $-1 1.405283225226934718 0.9049999999999996936 27.43749999999999645 #
coedge $-1 -1 $-1 $204 $212 $200 $284 reversed $227 0 $-1 #
edge $-1 -1 $-1 $206 -0.1219200000000002504 $214 0.1219200000000002504 $200 $337 forward @7 unknown #
DXID-attrib $-1 -1 $-1 $-1 $201 @10 ASM ENTITY @2 15 #
plane-surface $-1 -1 $-1 0.5004999999999998339 1.000999999999999668 26.44149999999999423 0 0 -1 0.3937007874015747699 0 0 forward_v I I I I #
ellipse-curve $-1 -1 $-1 1.450891612613467441 1.000999999999999668 27.39189161261346328 0 -1 0 0.06450000000000000178 0 0 1 I I #
coedge $-1 -1 $-1 $212 $204 $273 $331 reversed $227 0 $-1 #
ellipse-curve $-1 -1 $-1 0.5461083873865322236 1.000999999999999668 26.48710838738652384 0 -1 0 0.06450000000000000178 0 0 1 I I #
point $-1 -1 $-1 0.5917167747730648353 1.00099999999999989 26.44149999999999423 #
coedge $338 -1 $-1 $339 $340 $341 $342 forward $208 0 $-1 #
DXID-attrib $-1 -1 $-1 $-1 $210 @10 ASM ENTITY @2 21 #
face $343 -1 $-1 $344 $345 $6 $-1 $346 forward single #
loop $-1 -1 $-1 $-1 $347 $210 #
plane-surface $-1 -1 $-1 1.996999999999999886 0 0 1 0 0 0 0.3937007874015747699 0 forward_v I I I I #
ellipse-curve $-1 -1 $-1 0.5461083873865322236 0.9049999999999996936 26.48710838738652384 0 1 0 0.06450000000000000178 0 0 1 I I #
point $-1 -1 $-1 0.5917167747730648353 0.9049999999999996936 26.44149999999999423 #
ellipse-curve $-1 -1 $-1 1.450891612613467441 0.9049999999999996936 27.39189161261346328 0 1 0 0.06450000000000000178 0 0 1 I I #
coedge $348 -1 $-1 $349 $350 $351 $352 forward $218 0 $-1 #
DXID-attrib $-1 -1 $-1 $-1 $220 @10 ASM ENTITY @2 13 #
face $353 -1 $-1 $201 $317 $6 $-1 $354 reversed single #
plane-surface $-1 -1 $-1 0.5004999999999997229 1.000999999999999668 0.4999999999999999445 -0 -0 -1 0.3937007874015747699 0 0 forward_v I I I I #
DXID-attrib $-1 -1 $-1 $-1 $226 @10 ASM ENTITY @1 8 #
plane-surface $-1 -1 $-1 1.496499999999999719 1.000999999999999668 1.495999999999999996 0 0 1 -0.3937007874015747699 -0 -0 forward_v I I I I #
coedge $-1 -1 $-1 $230 $229 $355 $356 reversed $87 0 $-1 #
edge $-1 -1 $-1 $357 2.356194490192345725 $308 5.497787143782137065 $260 $358 forward @7 unknown #
edge $-1 -1 $-1 $309 0.7853981633974491672 $359 3.926990816987240507 $263 $360 forward @7 unknown #
vertex $-1 -1 $-1 $261 0 $361 #
vertex $-1 -1 $-1 $307 0 $362 #
straight-curve $-1 -1 $-1 0.5917167747730643912 0.9529999999999997362 0.4999999999999999445 0 -0.3937007874015747699 0 I I #
ellipse-curve $-1 -1 $-1 1.450891612613467441 1.000999999999999668 1.45039161261346794 0 -1 0 0.06450000000000000178 0 0 1 I I #
ellipse-curve $-1 -1 $-1 1.450891612613467441 0.9049999999999996936 1.45039161261346794 0 1 0 0.06450000000000000178 0 0 1 I I #
point $-1 -1 $-1 1.40528322522693494 1.00099999999999989 1.495999999999999996 #
point $-1 -1 $-1 1.40528322522693494 0.9049999999999996936 1.495999999999999996 #
coedge $-1 -1 $-1 $355 $241 $244 $319 reversed $317 0 $-1 #
coedge $363 -1 $-1 $241 $355 $247 $321 reversed $317 0 $-1 #
loop $-1 -1 $-1 $-1 $241 $301 #
straight-curve $-1 -1 $-1 0.5004999999999998339 0.9529999999999997362 1.404783225226935661 0 -0.3937007874015747699 0 I I #
edge $-1 -1 $-1 $359 -0.3982293920764161665 $245 1.668229392076416406 $244 $364 forward @7 unknown #
point $-1 -1 $-1 0.5004999999999998339 0.9049999999999996936 1.404783225226935661 #
edge $-1 -1 $-1 $249 -1.668229392076416406 $357 0.3982293920764161665 $247 $365 forward @7 unknown #
point $-1 -1 $-1 0.5004999999999998339 1.00099999999999989 1.404783225226935661 #
straight-curve $-1 -1 $-1 1.746750000000000025 1.000999999999999668 1.495999999999999996 -0.3937007874015747699 0 0 I I #
straight-curve $-1 -1 $-1 0.7962499999999997913 0.9049999999999996936 1.495999999999999996 0.3937007874015747699 0 0 I I #
ATTRIB_CUSTOM-attrib $-1 -1 $-1 $-1 $256 @17 sketch_attrib_def 1 1 3 @13 134 0 0 0 1 1 #
straight-curve $-1 -1 $-1 1.248749999999999805 1.000999999999999668 0.4999999999999999445 0.3937007874015747699 0 0 I I #
straight-curve $-1 -1 $-1 0.2982499999999997931 0.9049999999999996936 0.4999999999999999445 -0.3937007874015747699 0 0 I I #
straight-curve $-1 -1 $-1 1.496499999999999719 0.9529999999999997362 1.404783225226935439 0 0.3937007874015747699 0 I I #
point $-1 -1 $-1 1.496499999999999719 0.9049999999999996936 1.404783225226935439 #
point $-1 -1 $-1 1.496499999999999719 1.00099999999999989 1.404783225226935439 #
edge $-1 -1 $-1 $276 -0.1219200000000002504 $278 0.1219200000000002504 $273 $366 forward @7 unknown #
DXID-attrib $-1 -1 $-1 $-1 $275 @10 ASM ENTITY @2 16 #
face $367 -1 $-1 $368 $369 $6 $-1 $370 forward single #
plane-surface $-1 -1 $-1 0.5004999999999998339 1.000999999999999668 27.43749999999999645 -1 -0 -0 0 0 -0.3937007874015747699 forward_v I I I I #
point $-1 -1 $-1 0.5004999999999998339 0.9049999999999996936 26.53271677477305701 #
point $-1 -1 $-1 0.5004999999999998339 1.00099999999999989 26.53271677477305701 #
straight-curve $-1 -1 $-1 0.5917167747730648353 0.9529999999999997362 26.44149999999999423 0 -0.3937007874015747699 0 I I #
ATTRIB_CUSTOM-attrib $-1 -1 $-1 $-1 $291 @17 sketch_attrib_def 1 1 3 @13 107 0 0 0 1 1 #
coedge $-1 -1 $-1 $371 $291 $372 $373 forward $208 0 $-1 #
coedge $-1 -1 $-1 $291 $371 $374 $375 reversed $208 0 $-1 #
coedge $376 -1 $-1 $377 $378 $291 $342 reversed $379 0 $-1 #
edge $-1 -1 $-1 $380 0 $381 5.072379999999999889 $291 $382 forward @7 unknown #
DXID-attrib $-1 -1 $-1 $-1 $293 @10 ASM ENTITY @2 22 #
face $383 -1 $-1 $384 $385 $6 $-1 $386 forward single #
loop $-1 -1 $-1 $-1 $387 $293 #
plane-surface $-1 -1 $-1 0 0 0 0 -1 0 0.3937007874015747699 0 0 forward_v I I I I #
coedge $388 -1 $-1 $374 $389 $377 $390 forward $294 0 $-1 #
ATTRIB_CUSTOM-attrib $-1 -1 $-1 $-1 $299 @17 sketch_attrib_def 1 1 3 @24 118 115 4294967295 0 1 1 #
coedge $-1 -1 $-1 $391 $299 $392 $393 forward $218 0 $-1 #
coedge $-1 -1 $-1 $299 $391 $394 $395 reversed $218 0 $-1 #
coedge $396 -1 $-1 $397 $398 $299 $352 reversed $399 0 $-1 #
edge $-1 -1 $-1 $400 -4.584700000000000664 $401 0 $299 $402 forward @7 unknown #
DXID-attrib $-1 -1 $-1 $-1 $301 @10 ASM ENTITY @2 14 #
plane-surface $-1 -1 $-1 0.5004999999999998339 1.000999999999999668 1.495999999999999996 -1 0 0 -0 -0 -0.3937007874015747699 forward_v I I I I #
coedge $-1 -1 $-1 $316 $315 $305 $356 forward $317 0 $-1 #
edge $-1 -1 $-1 $359 -0.1219200000000002504 $357 0.1219200000000002504 $355 $403 forward @7 unknown #
vertex $-1 -1 $-1 $356 1 $404 #
ellipse-curve $-1 -1 $-1 0.5461083873865322236 1.000999999999999668 0.5456083873865322786 0 -1 0 0.06450000000000000178 0 0 1 I I #
vertex $-1 -1 $-1 $319 0 $405 #
ellipse-curve $-1 -1 $-1 0.5461083873865322236 0.9049999999999996936 0.5456083873865322786 0 1 0 0.06450000000000000178 0 0 1 I I #
point $-1 -1 $-1 0.5917167747730643912 1.00099999999999989 0.4999999999999999445 #
point $-1 -1 $-1 0.5917167747730643912 0.9049999999999996936 0.4999999999999999445 #
ATTRIB_CUSTOM-attrib $-1 -1 $-1 $-1 $316 @17 sketch_attrib_def 1 1 3 @13 135 0 0 0 1 1 #
straight-curve $-1 -1 $-1 0.5004999999999998339 0.9049999999999996936 0.7479999999999999982 0 0 0.3937007874015747699 I I #
straight-curve $-1 -1 $-1 0.5004999999999997229 1.000999999999999668 0.7479999999999999982 0 0 -0.3937007874015747699 I I #
straight-curve $-1 -1 $-1 0.5004999999999998339 0.9529999999999997362 26.53271677477305701 0 0.3937007874015747699 0 I I #
DXID-attrib $-1 -1 $-1 $-1 $333 @10 ASM ENTITY @2 17 #
face $406 -1 $-1 $407 $408 $6 $-1 $409 forward single #
loop $-1 -1 $-1 $-1 $410 $333 #
plane-surface $-1 -1 $-1 1.901000000000000023 0.09599999999999998812 0 0 1 0 -0.3937007874015747699 -0 -0 forward_v I I I I #
coedge $-1 -1 $-1 $340 $339 $411 $412 reversed $208 0 $-1 #
coedge $-1 -1 $-1 $413 $414 $339 $373 reversed $385 0 $-1 #
edge $-1 -1 $-1 $381 0 $415 70.96124999999999261 $372 $416 forward @7 unknown #
coedge $-1 -1 $-1 $417 $347 $340 $375 forward $294 0 $-1 #
edge $-1 -1 $-1 $380 0 $418 70.96124999999999261 $374 $419 forward @7 unknown #
ATTRIB_CUSTOM-attrib $-1 -1 $-1 $-1 $341 @17 sketch_attrib_def 1 1 3 @13 107 0 0 0 1 1 #
coedge $420 -1 $-1 $421 $341 $347 $390 reversed $379 0 $-1 #
coedge $422 -1 $-1 $341 $421 $413 $423 reversed $379 0 $-1 #
loop $-1 -1 $-1 $-1 $378 $424 #
vertex $-1 -1 $-1 $390 1 $425 #
vertex $-1 -1 $-1 $423 0 $426 #
straight-curve $-1 -1 $-1 1.996999999999999886 1.000999999999999668 0 -0.3937007874015747699 0 0 F 0 F 5.072379999999999889 #
DXID-attrib $-1 -1 $-1 $-1 $344 @10 ASM ENTITY @2 23 #
face $427 -1 $-1 $424 $428 $6 $-1 $429 forward single #
loop $-1 -1 $-1 $-1 $413 $344 #
plane-surface $-1 -1 $-1 0 1.000999999999999668 0 -1 0 0 0 -0.3937007874015747699 0 forward_v I I I I #
coedge $430 -1 $-1 $431 $432 $421 $433 forward $345 0 $-1 #
ATTRIB_CUSTOM-attrib $-1 -1 $-1 $-1 $347 @17 sketch_attrib_def 1 1 3 @13 106 0 0 0 1 1 #
coedge $-1 -1 $-1 $347 $417 $431 $434 reversed $294 0 $-1 #
edge $-1 -1 $-1 $435 0 $380 2.542539999999999356 $347 $436 forward @7 unknown #
coedge $-1 -1 $-1 $350 $349 $437 $438 reversed $218 0 $-1 #
coedge $-1 -1 $-1 $439 $440 $349 $393 reversed $408 0 $-1 #
edge $-1 -1 $-1 $401 0 $441 70.96124999999999261 $349 $442 forward @7 unknown #
coedge $-1 -1 $-1 $443 $444 $350 $395 forward $445 0 $-1 #
edge $-1 -1 $-1 $400 0 $446 70.96124999999999261 $394 $447 forward @7 unknown #
ATTRIB_CUSTOM-attrib $-1 -1 $-1 $-1 $351 @17 sketch_attrib_def 1 1 3 @24 118 115 4294967295 0 1 1 #
coedge $448 -1 $-1 $449 $351 $444 $450 reversed $399 0 $-1 #
coedge $451 -1 $-1 $351 $449 $439 $452 reversed $399 0 $-1 #
loop $-1 -1 $-1 $379 $397 $424 #
vertex $-1 -1 $-1 $450 1 $453 #
vertex $-1 -1 $-1 $352 1 $454 #
straight-curve $-1 -1 $-1 1.901000000000000023 0.9049999999999996936 0 0.3937007874015747699 0 0 F -4.584700000000000664 F -0 #
straight-curve $-1 -1 $-1 0.5004999999999998339 0.9529999999999997362 0.5912167747730645573 0 0.3937007874015747699 0 I I #
point $-1 -1 $-1 0.5004999999999998339 1.00099999999999989 0.5912167747730645573 #
point $-1 -1 $-1 0.5004999999999998339 0.9049999999999996936 0.5912167747730645573 #
DXID-attrib $-1 -1 $-1 $-1 $368 @10 ASM ENTITY @2 18 #
face $455 -1 $-1 $130 $445 $6 $-1 $456 forward single #
loop $-1 -1 $-1 $-1 $439 $368 #
plane-surface $-1 -1 $-1 1.901000000000000023 0.9049999999999996936 0 -1 0 0 -0 -0.3937007874015747699 -0 forward_v I I I I #
coedge $457 -1 $-1 $458 $459 $449 $460 forward $369 0 $-1 #
coedge $-1 -1 $-1 $461 $462 $371 $412 forward $463 0 $-1 #
edge $-1 -1 $-1 $418 0 $415 5.072379999999999889 $371 $464 forward @7 unknown #
coedge $465 -1 $-1 $466 $372 $378 $423 forward $385 0 $-1 #
coedge $-1 -1 $-1 $372 $466 $461 $467 reversed $385 0 $-1 #
vertex $-1 -1 $-1 $373 1 $468 #
straight-curve $-1 -1 $-1 0 1.000999999999999668 0 0 0 0.3937007874015747699 I I #
coedge $-1 -1 $-1 $389 $374 $462 $469 reversed $294 0 $-1 #
vertex $-1 -1 $-1 $375 1 $470 #
straight-curve $-1 -1 $-1 1.996999999999999886 1.000999999999999668 0 0 0 0.3937007874015747699 I I #
ATTRIB_CUSTOM-attrib $-1 -1 $-1 $-1 $377 @17 sketch_attrib_def 1 1 3 @13 106 0 0 0 1 1 #
coedge $471 -1 $-1 $378 $377 $387 $433 reversed $379 0 $-1 #
ATTRIB_CUSTOM-attrib $-1 -1 $-1 $-1 $378 @17 sketch_attrib_def 1 1 3 @13 108 0 0 0 1 1 #
edge $-1 -1 $-1 $381 0 $472 2.542539999999999356 $413 $473 forward @7 unknown #
face $474 -1 $-1 $-1 $399 $6 $-1 $475 reversed single #
point $-1 -1 $-1 1.996999999999999886 1.000999999999999668 0 #
point $-1 -1 $-1 0 1.000999999999999668 0 #
DXID-attrib $-1 -1 $-1 $-1 $384 @10 ASM ENTITY @2 24 #
loop $-1 -1 $-1 $463 $476 $384 #
plane-surface $-1 -1 $-1 0.9984999999999999432 0.5004999999999998339 27.93749999999999645 0 0 1 0.3937007874015747699 0 0 forward_v I I I I #
ATTRIB_CUSTOM-attrib $-1 -1 $-1 $-1 $387 @17 sketch_attrib_def 1 1 3 @13 105 0 0 0 1 1 #
coedge $-1 -1 $-1 $477 $387 $389 $434 forward $345 0 $-1 #
coedge $-1 -1 $-1 $387 $477 $466 $478 reversed $345 0 $-1 #
edge $-1 -1 $-1 $472 0 $435 5.072379999999999889 $387 $479 forward @7 unknown #
edge $-1 -1 $-1 $435 0 $480 70.96124999999999261 $431 $481 forward @7 unknown #
vertex $-1 -1 $-1 $433 1 $482 #
straight-curve $-1 -1 $-1 1.996999999999999886 0 0 0 0.3937007874015747699 0 F 0 F 2.542539999999999356 #
coedge $-1 -1 $-1 $483 $476 $391 $438 forward $428 0 $-1 #
edge $-1 -1 $-1 $446 -4.584700000000000664 $441 -0 $391 $484 forward @7 unknown #
coedge $485 -1 $-1 $486 $392 $398 $452 forward $408 0 $-1 #
coedge $-1 -1 $-1 $392 $486 $483 $487 reversed $408 0 $-1 #
vertex $-1 -1 $-1 $393 1 $488 #
straight-curve $-1 -1 $-1 1.901000000000000023 0.9049999999999996936 0 0 0 0.3937007874015747699 I I #
coedge $-1 -1 $-1 $489 $394 $476 $490 reversed $445 0 $-1 #
coedge $491 -1 $-1 $394 $489 $397 $450 forward $445 0 $-1 #
loop $-1 -1 $-1 $-1 $444 $407 #
vertex $-1 -1 $-1 $395 1 $492 #
straight-curve $-1 -1 $-1 0.09599999999999983546 0.9049999999999996936 0 0 0 0.3937007874015747699 I I #
ATTRIB_CUSTOM-attrib $-1 -1 $-1 $-1 $397 @17 sketch_attrib_def 1 1 3 @24 120 116 4294967295 0 1 1 #
coedge $493 -1 $-1 $398 $397 $410 $460 reversed $399 0 $-1 #
edge $-1 -1 $-1 $494 -2.054859999999999243 $400 0 $444 $495 forward @7 unknown #
ATTRIB_CUSTOM-attrib $-1 -1 $-1 $-1 $398 @17 sketch_attrib_def 1 1 3 @24 119 113 4294967295 0 1 1 #
edge $-1 -1 $-1 $401 -2.054859999999999243 $496 -0 $439 $497 forward @7 unknown #
point $-1 -1 $-1 0.09599999999999983546 0.9049999999999996936 0 #
point $-1 -1 $-1 1.901000000000000023 0.9049999999999996936 0 #
DXID-attrib $-1 -1 $-1 $-1 $407 @10 ASM ENTITY @2 19 #
plane-surface $-1 -1 $-1 0.09599999999999998812 0.09600000000000001588 0 1 1.891019624786140773e-16 0 -7.444959152701340666e-17 0.3937007874015747699 0 forward_v I I I I #
ATTRIB_CUSTOM-attrib $-1 -1 $-1 $-1 $410 @17 sketch_attrib_def 1 1 3 @24 117 111 4294967295 0 1 1 #
coedge $-1 -1 $-1 $498 $410 $489 $499 forward $369 0 $-1 #
coedge $-1 -1 $-1 $410 $498 $486 $500 reversed $369 0 $-1 #
edge $-1 -1 $-1 $496 -4.584700000000000664 $494 -0 $410 $501 forward @7 unknown #
coedge $-1 -1 $-1 $502 $411 $414 $467 forward $463 0 $-1 #
coedge $-1 -1 $-1 $411 $502 $417 $469 forward $463 0 $-1 #
loop $-1 -1 $-1 $-1 $461 $384 #
straight-curve $-1 -1 $-1 1.996999999999999886 1.000999999999999668 27.93749999999999645 -0.3937007874015747699 0 0 I I #
ATTRIB_CUSTOM-attrib $-1 -1 $-1 $-1 $413 @17 sketch_attrib_def 1 1 3 @13 108 0 0 0 1 1 #
coedge $-1 -1 $-1 $414 $413 $432 $478 forward $385 0 $-1 #
edge $-1 -1 $-1 $415 0 $503 2.542539999999999356 $414 $504 forward @7 unknown #
point $-1 -1 $-1 0 1.000999999999999668 27.93749999999999645 #
edge $-1 -1 $-1 $480 0 $418 2.542539999999999356 $417 $505 forward @7 unknown #
point $-1 -1 $-1 1.996999999999999886 1.000999999999999668 27.93749999999999645 #
ATTRIB_CUSTOM-attrib $-1 -1 $-1 $-1 $421 @17 sketch_attrib_def 1 1 3 @13 105 0 0 0 1 1 #
vertex $-1 -1 $-1 $423 1 $506 #
straight-curve $-1 -1 $-1 0 1.000999999999999668 0 0 -0.3937007874015747699 0 F 0 F 2.542539999999999356 #
DXID-attrib $-1 -1 $-1 $-1 $424 @10 ASM ENTITY @2 25 #
plane-surface $-1 -1 $-1 0.9984999999999999432 0.5004999999999998339 0 0 0 1 0.3937007874015747699 0 0 forward_v I I I I #
coedge $-1 -1 $-1 $437 $507 $443 $490 forward $428 0 $-1 #
coedge $-1 -1 $-1 $432 $431 $502 $508 reversed $345 0 $-1 #
edge $-1 -1 $-1 $472 0 $503 70.96124999999999261 $466 $509 forward @7 unknown #
straight-curve $-1 -1 $-1 0 0 0 0.3937007874015747699 0 0 F 0 F 5.072379999999999889 #
vertex $-1 -1 $-1 $434 1 $510 #
straight-curve $-1 -1 $-1 1.996999999999999886 0 0 0 0 0.3937007874015747699 I I #
point $-1 -1 $-1 1.996999999999999886 0 0 #
coedge $-1 -1 $-1 $507 $437 $440 $487 forward $428 0 $-1 #
straight-curve $-1 -1 $-1 1.901000000000000023 0.9049999999999996936 27.93749999999999645 0.3937007874015747699 0 0 I I #
ATTRIB_CUSTOM-attrib $-1 -1 $-1 $-1 $439 @17 sketch_attrib_def 1 1 3 @24 119 113 4294967295 0 1 1 #
coedge $-1 -1 $-1 $440 $439 $459 $500 forward $408 0 $-1 #
edge $-1 -1 $-1 $441 -2.054859999999999243 $511 -0 $440 $512 forward @7 unknown #
point $-1 -1 $-1 1.901000000000000023 0.9049999999999996936 27.93749999999999645 #
coedge $-1 -1 $-1 $444 $443 $458 $499 reversed $445 0 $-1 #
edge $-1 -1 $-1 $513 -2.054859999999999243 $446 -0 $443 $514 forward @7 unknown #
ATTRIB_CUSTOM-attrib $-1 -1 $-1 $-1 $444 @17 sketch_attrib_def 1 1 3 @24 120 116 4294967295 0 1 1 #
point $-1 -1 $-1 0.09599999999999983546 0.9049999999999996936 27.93749999999999645 #
ATTRIB_CUSTOM-attrib $-1 -1 $-1 $-1 $449 @17 sketch_attrib_def 1 1 3 @24 117 111 4294967295 0 1 1 #
vertex $-1 -1 $-1 $450 0 $515 #
straight-curve $-1 -1 $-1 0.09599999999999983546 0.9049999999999996936 0 -7.444959152701340666e-17 0.3937007874015747699 0 F -2.054859999999999243 F -0 #
vertex $-1 -1 $-1 $452 1 $516 #
straight-curve $-1 -1 $-1 1.901000000000000023 0.09599999999999998812 0 -0 -0.3937007874015747699 -0 F -2.054859999999999243 F -0 #
coedge $-1 -1 $-1 $459 $458 $507 $517 reversed $369 0 $-1 #
edge $-1 -1 $-1 $494 0 $513 70.96124999999999261 $489 $518 forward @7 unknown #
edge $-1 -1 $-1 $496 0 $511 70.96124999999999261 $486 $519 forward @7 unknown #
straight-curve $-1 -1 $-1 0.09599999999999998812 0.09599999999999998812 0 -0.3937007874015747699 -0 -0 F -4.584700000000000664 F -0 #
coedge $-1 -1 $-1 $462 $461 $477 $508 forward $463 0 $-1 #
vertex $-1 -1 $-1 $478 1 $520 #
straight-curve $-1 -1 $-1 0 1.000999999999999668 27.93749999999999645 0 -0.3937007874015747699 0 I I #
straight-curve $-1 -1 $-1 1.996999999999999886 0 27.93749999999999645 0 0.3937007874015747699 0 I I #
point $-1 -1 $-1 0 0 0 #
coedge $-1 -1 $-1 $476 $483 $498 $517 forward $428 0 $-1 #
edge $-1 -1 $-1 $503 0 $480 5.072379999999999889 $477 $521 forward @7 unknown #
straight-curve $-1 -1 $-1 0 0 0 0 0 0.3937007874015747699 I I #
point $-1 -1 $-1 1.996999999999999886 0 27.93749999999999645 #
vertex $-1 -1 $-1 $500 1 $522 #
straight-curve $-1 -1 $-1 1.901000000000000023 0.09599999999999998812 27.93749999999999645 -0 -0.3937007874015747699 -0 I I #
vertex $-1 -1 $-1 $499 1 $523 #
straight-curve $-1 -1 $-1 0.09599999999999983546 0.9049999999999996936 27.93749999999999645 -7.444959152701340666e-17 0.3937007874015747699 0 I I #
point $-1 -1 $-1 0.09599999999999998812 0.09600000000000001588 0 #
point $-1 -1 $-1 1.901000000000000023 0.09599999999999998812 0 #
edge $-1 -1 $-1 $511 -4.584700000000000664 $513 -0 $498 $524 forward @7 unknown #
straight-curve $-1 -1 $-1 0.09599999999999998812 0.09600000000000001588 0 0 0 0.3937007874015747699 I I #
straight-curve $-1 -1 $-1 1.901000000000000023 0.09599999999999998812 0 0 0 0.3937007874015747699 I I #
point $-1 -1 $-1 0 0 27.93749999999999645 #
straight-curve $-1 -1 $-1 0 0 27.93749999999999645 0.3937007874015747699 0 0 I I #
point $-1 -1 $-1 1.901000000000000023 0.09599999999999998812 27.93749999999999645 #
point $-1 -1 $-1 0.09599999999999998812 0.09600000000000001588 27.93749999999999645 #
straight-curve $-1 -1 $-1 0.09599999999999998812 0.09599999999999998812 27.93749999999999645 -0.3937007874015747699 -0 -0 I I #
End-of-ASM-data 